# xmcd
#
# Track frame offsets:
#	150
#	14343
#	36450
#	53513
#	63443
#	74934
#	98545
#	119761
#	144236
#	158652
#	179784
#	192751
#	209174
#	220831
#	232824
#	242670
#
# Disc length: 3439
#
# Revision: 1
# Processed by: cddbd v1.5.1PL0 Copyright (c) Steve Scherf et al.
# Submitted via: OrangeCD 5.2
# Normalized: r0:DSETVAR1
#
DISCID=ef0d6d10
DTITLE=Various Artist - Superstar Blue
DYEAR=1900
DGENRE=Blues
TTITLE0=Eric Clapton and Jimmy Page - Draggin' My Tail
TTITLE1=Jimmy Rogers - You're Sweet
TTITLE2=John Lee Hooker - Roll Your Daddy Right
TTITLE3=John Mayall - I'm Your Witchdoctor
TTITLE4=Johnny "Guitar" Wilson - Late Freight
TTITLE5=Junior Wells - In My Younger Days
TTITLE6=Louisiana Red - Nuthin' But a Gypsy Man
TTITLE7=Lowell Fulson - Lowell's Jump
TTITLE8=Meade Lux Lewis - Honky Tonk Train Blues
TTITLE9=Mississippi Fred McDowell - Write Me a Few Short Lines
TTITLE10=Muddy Waters - Hoochie Coochie Man
TTITLE11=Muddy Waters - Got My Mojo Working
TTITLE12=Screemin' Jay Hawkins - Well, I Tried
TTITLE13=Sonny Boy Williamson - Hidden Charms
TTITLE14=Sonny Terry - Fox Chase
TTITLE15=Sonny Terry and Brownie McGee - I've Been Treated Wrong
EXTD=
EXTT0=
EXTT1=
EXTT2=
EXTT3=
EXTT4=
EXTT5=
EXTT6=
EXTT7=
EXTT8=
EXTT9=
EXTT10=
EXTT11=
EXTT12=
EXTT13=
EXTT14=
EXTT15=
PLAYORDER=
